<?xml version="1.0" standalone="no"?>
<svg viewBox="0 0 30 40" version="1.1" xmlns="http://www.w3.org/2000/svg">
  <path d="M 13 5 L 4 18 L 7 23 L 14 12 z" stroke="none" fill="#8b7"/>
  <path d="M 20 4 L 13 5 L 14 12 L 20 13 L 22 11 z" stroke="none" fill="#9c8"/>
  <path d="M 20 4 L 22 11 L 24 13 L 27 10 z" stroke="none" fill="#695"/>
  <path d="M 4 18 L 3 23 L 7 23 z" stroke="none" fill="#7a6"/>
  <path d="M 7 23 L 10 23 L 17 31 L 17 35 L 20 32 L 20 13 L 14 12 z" stroke="none" fill="#8b6"/>
  <path d="M 20 13 L 20 32 L 22 30 L 22 11 z" stroke="none" fill="#695"/>
  <path d="M 22 11 L 22 30 L 24 31 L 24 13 z" stroke="none" fill="#7a6"/>
  <path d="M 24 13 L 24 31 L 27 28 L 27 10 z" stroke="none" fill="#8b7"/>
  <path d="M 3 23 L 3 30 L 10 27 L 10 23 z" stroke="none" fill="#796"/>
  <path d="M 10 23 L 10 27 L 16 33 L 17 31 z" stroke="none" fill="#8a8"/>
  <path d="M 3 30 L 6 36 L 16 36 L 16 33 L 10 27 z" stroke="none" fill="#9b8"/>
  <path d="M 16 33 L 16 36 L 17 35 L 17 31 z" stroke="none" fill="#796"/>
  <path d="M 17 35 L 20 35 L 24 31 L 22 30 z" stroke="none" fill="#897"/>
</svg>
